:SAMPLES-PER-SECOND 30
:FULLY-SPECIFIED
:DEGREES
212
root  34.81712942 36.56748374 -14.23822538 9.669774055 -3.894946575 3.864439487
lowerback  -7.892370701 -0.01732278056 -1.368199825
upperback  -4.004330158 0.6611480117 -4.675483704
thorax  0.3219290972 0.5371170044 -4.024050236
lowerneck  -6.996610165 -14.79109955 -9.614450455
upperneck  13.84819984 -20.72320175 13.3032999
head  7.835363865 -9.277985573 3.649484158
lclavicle  0 -4.497500157e-015 -2.743230041e-014
lhumerus  -47.33369827 30.80509949 61.35710144
lradius  -0.09134990722 -6.507048965e-006 29.13169861
lwrist  3.192251654e-007 -3.790274832e-007 -29.89760017
lhand  -4.443108176e-031 -37.36909866 -10.60400009
lfingers  90 7.125020027 -90
lthumb  95.02018902 -25.42417991 101.56385
rclavicle  0 -4.497500157e-015 -2.743230041e-014
rhumerus  15.08650208 -37.88019943 -38.00190353
rradius  -5.16745672e-007 2.214343908e-008 44.47069931
rwrist  0.0003490542294 -0.002273720223 -161.7850037
rhand  -1.770856439e-031 4.431419849 -7.874579906
rfingers  -90 -7.125020027 -90
rthumb  -85.23837099 -8.238225419 -59.82938974
rfemur  -11.24925804 15.23647976 12.41924477
rtibia  -0.5181183219 -1.275705099 18.50234795
rfoot  1.373903632 -21.49467087 -35.55840302
rtoes  3.858956542 19.639156 -101.3483602
lfemur  -4.275640488 -17.00290489 -22.66685486
ltibia  6.510491371 -0.6580333114 8.075971603
lfoot  0.5270256996 -21.02621269 36.43712997
ltoes  -8.700289066 -18.07865246 -116.2489103
213
root  34.81706935 36.57071872 -14.23882462 9.657052994 -3.867655039 3.851522684
lowerback  -7.886040688 -0.03372691199 -1.393929839
upperback  -3.99732995 0.6409590244 -4.677349091
thorax  0.3214788735 0.5273429751 -4.0103302
lowerneck  -6.99861002 -14.77929974 -9.565990448
upperneck  13.81359959 -20.70420265 13.27330017
head  7.813227177 -9.278998375 3.637101173
lclavicle  0 -4.497500157e-015 -2.743230041e-014
lhumerus  -47.31359863 30.76799965 61.38990021
lradius  -0.09387593716 -6.507048965e-006 29.14889908
lwrist  3.192251654e-007 -3.790274832e-007 -29.85000038
lhand  -4.444388229e-031 -37.39070129 -10.55819988
lfingers  90 7.125020027 -90
lthumb  95.02010057 -25.37856799 101.5825289
rclavicle  0 -4.497500157e-015 -2.743230041e-014
rhumerus  14.65629768 -37.97579956 -37.93189621
rradius  -5.16745672e-007 2.214343908e-008 45.05690002
rwrist  0.0003490542294 -0.002273720223 -162.0839996
rhand  -1.770892478e-031 4.44644022 -7.972280025
rfingers  -90 -7.125020027 -90
rthumb  -85.28466239 -8.154743993 -59.82188259
rfemur  -11.21190548 15.24565792 12.4435606
rtibia  -0.5189625025 -1.263619661 18.46011543
rfoot  1.401340365 -21.45526314 -35.56262589
rtoes  3.867786116 19.63748502 -101.3746323
lfemur  -4.347142696 -17.05878448 -22.61139679
ltibia  6.438593864 -0.6693244576 8.224485397
lfoot  0.5390053988 -21.06116104 36.44891357
ltoes  -8.665162904 -18.09507707 -116.1357675
214
root  34.81692817 36.57197427 -14.2395395 9.655694008 -3.848533154 3.845445395
lowerback  -7.86741972 -0.04619869217 -1.400900245
upperback  -3.991839886 0.6229889989 -4.678367615
thorax  0.3230380118 0.5179880261 -4.001629829
lowerneck  -7.001299858 -14.76749992 -9.550279617
upperneck  13.80802059 -20.68901062 13.24591351
head  7.804261684 -9.280119896 3.62949419
lclavicle  0 -4.497500157e-015 -2.743230041e-014
lhumerus  -47.33409882 30.80170059 61.37939835
lradius  -0.09632253647 -6.507048965e-006 29.17090034
lwrist  3.192251654e-007 -3.790274832e-007 -29.86050034
lhand  -4.445859391e-031 -37.41550064 -10.57359982
lfingers  90 7.125020027 -90
lthumb  95.0351394 -25.39272739 101.6105755
rclavicle  0 -4.497500157e-015 -2.743230041e-014
rhumerus  14.17720127 -37.99530029 -37.80310059
rradius  -5.16745672e-007 2.214343908e-008 45.67050171
rwrist  0.0003490542294 -0.002273720223 -162.6759949
rhand  -1.770893439e-031 4.446839809 -8.036390305
rfingers  -90 -7.125020027 -90
rthumb  -85.31710172 -8.099384991 -59.82607519
rfemur  -11.19597816 15.21447754 12.45001793
rtibia  -0.5196154714 -1.278605819 18.43493652
rfoot  1.405800343 -21.48210335 -35.56441498
rtoes  3.866077314 19.63780872 -101.3695477
lfemur  -4.407435894 -17.03373337 -22.5763607
ltibia  6.391212463 -0.6542529464 8.315507889
lfoot  0.5439203978 -21.13009834 36.41753769
ltoes  -8.663741479 -18.09573995 -116.1311911
215
root  34.81671491 36.57221156 -14.24141831 9.647500038 -3.826899052 3.853484869
lowerback  -7.861939907 -0.0429363735 -1.399280071
upperback  -3.983340025 0.6263639927 -4.677350044
thorax  0.3290199935 0.5195162296 -4.001629829
lowerneck  -7.023190022 -14.7748003 -9.557149887
upperneck  13.81709957 -20.69560051 13.25119972
head  7.814085484 -9.281344414 3.628416061
lclavicle  0 -4.497500157e-015 -2.743230041e-014
lhumerus  -47.30920029 30.79789925 61.39670181
lradius  -0.09865373373 -6.507048965e-006 29.17790031
lwrist  3.192251654e-007 -3.790274832e-007 -29.85659981
lhand  -4.442326759e-031 -37.35589981 -10.59930038
lfingers  90 7.125020027 -90
lthumb  95.01295254 -25.42010614 101.5492271
rclavicle  0 -4.497500157e-015 -2.743230041e-014
rhumerus  13.47899818 -37.86589432 -37.48720169
rradius  -5.16745672e-007 2.214343908e-008 46.44139862
rwrist  0.0003490542294 -0.002273720223 -163.3419952
rhand  -1.770790849e-031 4.403950214 -7.954810143
rfingers  -90 -7.125020027 -90
rthumb  -85.28527366 -8.166892932 -59.8619242
rfemur  -11.1987009 15.19888783 12.44468117
rtibia  -0.5200389624 -1.277666211 18.46146965
rfoot  1.381868005 -21.49211693 -35.59360504
rtoes  3.880672848 19.63503907 -101.4129803
lfemur  -4.3177104 -16.96496964 -22.6143837
ltibia  6.465878963 -0.6262843013 8.159327507
lfoot  0.5367296338 -21.12712288 36.39215469
ltoes  -8.64364215 -18.10509876 -116.0664972
